<svg width="133" height="136" viewBox="0 0 133 136" fill="none" xmlns="http://www.w3.org/2000/svg">
<path d="M17 12.59C14.4977 12.9304 12.0871 13.7612 9.90635 15.0346C7.72557 16.3081 5.81744 17.9993 4.29125 20.0113C2.76505 22.0233 1.65077 24.3166 1.01222 26.7599C0.373671 29.2033 0.2234 31.7485 0.570015 34.25L11.93 115.37L59.72 6.62L17 12.59Z" fill="#97D700"/>
<path d="M132.28 80.18L127.81 17.81C127.436 12.7386 125.068 8.02213 121.224 4.69337C117.379 1.36461 112.373 -0.305063 107.3 0.0499997C106.864 0.0654688 106.429 0.112256 106 0.19L87.57 2.73L128.09 93.58C131.135 89.8058 132.632 85.0163 132.28 80.18Z" fill="#71C5E8"/>
<path d="M29.36 135.1C32.6403 135.476 35.9622 134.994 39 133.7L108.58 104.34L75.43 30.16L29.36 135.1Z" fill="#FF9013"/>
</svg>
